<?xml version="1.0" encoding="UTF-8"?>
<svg width="32px" height="32px" viewBox="0 0 32 32" version="1.1" xmlns="http://www.w3.org/2000/svg" xmlns:xlink="http://www.w3.org/1999/xlink">
    <title>F5C6A148-C8A4-46DA-B34F-AAD675BAF1A6</title>
    <g id="Symbols" stroke="none" stroke-width="1" fill="none" fill-rule="evenodd">
        <g id="icon/arrow/left" fill="#76B900" fill-rule="nonzero">
            <path d="M16,0 C24.836556,0 32,7.163444 32,16 C32,24.836556 24.836556,32 16,32 C7.163444,32 0,24.836556 0,16 C0,7.163444 7.163444,0 16,0 Z M16,2.46153846 C8.52291416,2.46153846 2.46153846,8.52291416 2.46153846,16 C2.46153846,23.4770858 8.52291416,29.5384615 16,29.5384615 C23.4770858,29.5384615 29.5384615,23.4770858 29.5384615,16 C29.5384615,8.52291416 23.4770858,2.46153846 16,2.46153846 Z M18.363173,11.8932514 C18.5920624,12.1444875 18.5739468,12.5337061 18.3227107,12.7625955 L14.7692349,16 L18.3227107,19.2374045 C18.5739468,19.4662939 18.5920624,19.8555125 18.363173,20.1067486 C18.1342836,20.3579847 17.7450649,20.3761003 17.4938288,20.1472109 L13.9403531,16.9098065 C13.912138,16.884101 13.8851339,16.8570969 13.8594285,16.8288818 C13.4016497,16.3264096 13.4378808,15.5479723 13.9403531,15.0901935 L17.4938288,11.8527891 C17.7450649,11.6238997 18.1342836,11.6420153 18.363173,11.8932514 Z"></path>
        </g>
    </g>
</svg>